<?xml version="1.0" encoding="UTF-8" standalone="no"?>
<svg
   xmlns="http://www.w3.org/2000/svg"
   width="48"
   height="48"
   viewBox="0 0 48 48"
   version="1.1">
  <rect
     ry="6"
     y="0"
     x="0"
     height="48"
     width="48"
     style="opacity:1;vector-effect:none;fill:#8794a7;fill-opacity:1;stroke:none;stroke-width:2.07817674;stroke-linecap:butt;stroke-linejoin:miter;stroke-miterlimit:4;stroke-dasharray:none;stroke-dashoffset:0;stroke-opacity:1" />
  <g style="fill:#ffffff;fill-opacity:1;stroke:#343b46;stroke-opacity:1;stroke-width:1.5;stroke-miterlimit:4;stroke-dasharray:none">
    <path d="M 14.375 5.4160156 C 14.375 5.4160156 10.345703 5.632423 10.345703 9.9902344 L 10.345703 20.121094 L 36.59375 20.121094 L 36.59375 9.9902344 C 36.59375 5.828133 40.513672 5.4160156 40.513672 5.4160156 L 14.375 5.4160156 z "/>
    <g transform="matrix(0.74691089,-0.31171981,0.31171981,0.74691089,34.982756,-2.1818945)">
      <path d="m -42.664585,26.128624 h 26.646112 v 19.56102 h -26.646112 z" />
      <path d="m -42.664062,32.146484 13.322265,7.060547 13.324219,-7.060547" />
    </g>
    <rect
       width="39.932629"
       height="6.605783"
       x="4.0336857"
       y="18.697109" />
  </g>
  <g style="fill:#343b46;fill-opacity:1;stroke:none">
    <path d="m 19.605195,15.66864 c 1.551034,0 2.23388,-1.112062 2.23388,-2.467998 V 8.3134204 h -1.443731 v 4.7701626 c 0,0.995003 -0.331667,1.336426 -0.965738,1.336426 -0.409707,0 -0.79015,-0.224364 -1.073043,-0.75113 l -0.995003,0.73162 c 0.487747,0.838924 1.190102,1.268141 2.243635,1.268141 z" />
    <path d="m 25.734799,15.66864 c 1.668093,0 2.653341,-1.004758 2.653341,-2.185105 0,-1.043778 -0.575541,-1.599809 -1.453485,-1.960741 l -0.946228,-0.399953 c -0.614561,-0.243873 -1.131572,-0.429217 -1.131572,-0.946228 0,-0.477992 0.409707,-0.7608851 1.043777,-0.7608851 0.595051,0 1.073043,0.2146085 1.531525,0.5950511 l 0.73162,-0.907209 c -0.585296,-0.5950509 -1.42422,-0.9267186 -2.263145,-0.9267186 -1.46324,0 -2.497262,0.9072088 -2.497262,2.0875556 0,1.053533 0.73162,1.638829 1.46324,1.941232 l 0.965738,0.409707 c 0.643826,0.273138 1.082798,0.438972 1.082798,0.975493 0,0.507257 -0.399953,0.82917 -1.151083,0.82917 -0.63407,0 -1.316916,-0.321913 -1.833927,-0.799905 l -0.829169,0.995003 c 0.702355,0.673091 1.668093,1.053533 2.633832,1.053533 z" />
  </g>
</svg>
